<svg width="242" height="59" viewBox="0 0 242 59" fill="none" xmlns="http://www.w3.org/2000/svg">
<path fill-rule="evenodd" clip-rule="evenodd" d="M32.3005 0.996132C34.601 -0.332043 37.4353 -0.332044 39.7358 0.996131L58.6557 11.9196C60.9562 13.2477 62.3733 15.7023 62.3733 18.3587V36.5628L67.1187 39.4089L67.1483 39.4269C70.348 40.5962 72.632 43.6672 72.632 47.2717C72.632 51.8832 68.8937 55.6215 64.2823 55.6215C63.4998 55.6215 62.7425 55.5139 62.0243 55.3126C61.6772 55.2586 61.3325 55.1411 61.0056 54.954C60.3211 54.6617 59.6836 54.2806 59.1076 53.8251L52.7605 50.0482L39.7358 57.5681C37.4353 58.8963 34.601 58.8963 32.3005 57.5681L13.3806 46.6446C11.0801 45.3165 9.66298 42.8619 9.66298 40.2056V24.4027L4.4656 21.31C1.81506 19.9152 0 17.1301 0 13.9173C0 9.30583 3.73831 5.56752 8.34974 5.56752C9.74564 5.56752 11.0673 5.91181 12.2284 6.52164C12.356 6.57559 12.4807 6.63879 12.6014 6.71115L17.4083 9.59419L32.3005 0.996132ZM13.002 12.1535L10.4558 10.6263L10.4127 10.6127L10.2201 10.5067C9.6673 10.2025 9.03217 10.0287 8.34974 10.0287C6.20212 10.0287 4.46114 11.7696 4.46114 13.9173C4.46114 15.4211 5.31428 16.7295 6.57333 17.3778L6.63406 17.4091L9.66298 19.2115V18.3587C9.66298 15.8513 10.9257 13.5237 13.002 12.1535ZM57.4417 32.4518C57.6618 32.93 57.8324 33.4189 57.9555 33.9131L47.6592 27.7377C51.6403 26.9013 55.7427 28.7615 57.4417 32.4518ZM40.3489 37.4714C40.047 34.8056 41.056 32.0989 43.0497 30.1751L59.8036 40.2235C57.6129 41.6185 56.1164 44.0067 55.9483 46.7539L40.3489 37.4714ZM37.5052 4.85959C36.585 4.32832 35.4513 4.32832 34.5311 4.85959L15.8621 15.6382L36.0182 27.2753L56.1743 15.6382L37.5052 4.85959ZM14.1241 40.2056V19.786L33.7876 31.1387V53.2754L15.6112 42.7812C14.691 42.2499 14.1241 41.2681 14.1241 40.2056ZM64.2823 43.3831C62.1346 43.3831 60.3937 45.1241 60.3937 47.2717C60.3937 49.4194 62.1346 51.1603 64.2823 51.1603C66.4299 51.1603 68.1709 49.4194 68.1709 47.2717C68.1709 45.1241 66.4299 43.3831 64.2823 43.3831Z" fill="#262626"/>
<path d="M100.245 33.1525C101.027 33.1525 101.647 33.4625 102.105 34.0827C102.59 34.6759 102.766 35.3769 102.631 36.1858C102.28 38.289 101.296 39.9607 99.6784 41.201C98.0606 42.4144 96.0788 43.021 93.733 43.021C90.9558 43.021 88.7179 42.2256 87.0192 40.6348C85.3205 39.017 84.4711 36.8599 84.4711 34.1636V24.4972C84.4711 21.747 85.28 19.5899 86.8978 18.026C88.5426 16.4352 90.8345 15.6398 93.7735 15.6398C96.1193 15.6398 98.0876 16.2464 99.6784 17.4598C101.269 18.6462 102.253 20.2775 102.631 22.3536C102.766 23.1625 102.604 23.8771 102.146 24.4972C101.714 25.0904 101.067 25.387 100.204 25.387C98.937 25.387 98.155 24.7803 97.8584 23.567C97.3192 21.3021 95.9305 20.1696 93.6926 20.1696C92.3983 20.1696 91.3737 20.5741 90.6188 21.383C89.8908 22.1649 89.5268 23.2299 89.5268 24.5781V34.0827C89.5268 35.4309 89.8908 36.5094 90.6188 37.3183C91.3737 38.1002 92.3983 38.4912 93.6926 38.4912C95.9575 38.4912 97.3596 37.3587 97.8989 35.0938C98.2224 33.7996 99.0044 33.1525 100.245 33.1525Z" fill="#262626"/>
<path d="M125.592 24.4972V34.1636C125.592 36.8599 124.729 39.017 123.004 40.6348C121.305 42.2256 119.053 43.021 116.249 43.021C113.445 43.021 111.18 42.2256 109.454 40.6348C107.729 39.017 106.866 36.8599 106.866 34.1636V24.4972C106.866 21.747 107.675 19.5899 109.293 18.026C110.937 16.4352 113.256 15.6398 116.249 15.6398C119.053 15.6398 121.305 16.4487 123.004 18.0665C124.729 19.6573 125.592 21.8009 125.592 24.4972ZM111.922 24.5781V34.0827C111.922 35.4309 112.299 36.5094 113.054 37.3183C113.836 38.1002 114.901 38.4912 116.249 38.4912C117.597 38.4912 118.649 38.1002 119.404 37.3183C120.159 36.5094 120.536 35.4309 120.536 34.0827V24.5781C120.536 23.2299 120.159 22.1649 119.404 21.383C118.649 20.5741 117.597 20.1696 116.249 20.1696C114.901 20.1696 113.836 20.5741 113.054 21.383C112.299 22.1649 111.922 23.2299 111.922 24.5781Z" fill="#262626"/>
<path d="M135.956 17.5002L141.456 27.6115L146.876 17.5002C147.523 16.3947 148.426 15.842 149.586 15.842C150.314 15.842 150.907 16.0712 151.365 16.5296C151.824 16.961 152.053 17.5542 152.053 18.3091V40.473C152.053 41.174 151.81 41.7403 151.325 42.1717C150.839 42.6031 150.246 42.8188 149.545 42.8188C148.844 42.8188 148.264 42.6031 147.806 42.1717C147.375 41.7403 147.159 41.174 147.159 40.473V26.0746L143.519 32.8289C143.007 33.6917 142.292 34.1231 141.375 34.1231C140.432 34.1231 139.704 33.7052 139.191 32.8693L135.47 25.9532V40.5943C135.47 41.2415 135.241 41.7807 134.783 42.2121C134.351 42.6166 133.799 42.8188 133.125 42.8188C132.45 42.8188 131.884 42.6166 131.426 42.2121C130.994 41.7807 130.779 41.2415 130.779 40.5943V18.3091C130.779 17.5542 130.994 16.961 131.426 16.5296C131.884 16.0712 132.477 15.842 133.205 15.842C134.446 15.842 135.363 16.3947 135.956 17.5002Z" fill="#262626"/>
<path d="M157.953 40.3517V18.5114C157.953 17.7564 158.168 17.1632 158.6 16.7318C159.058 16.2734 159.665 16.0442 160.42 16.0442H167.215C169.884 16.0442 172.082 16.8396 173.807 18.4305C175.533 20.0213 176.396 22.0975 176.396 24.659C176.396 27.3553 175.533 29.5124 173.807 31.1302C172.108 32.748 169.911 33.5569 167.215 33.5569H163.008V40.3517C163.008 41.1066 162.766 41.7133 162.28 42.1717C161.822 42.6031 161.215 42.8188 160.46 42.8188C159.705 42.8188 159.099 42.6031 158.64 42.1717C158.182 41.7133 157.953 41.1066 157.953 40.3517ZM166.77 20.4527H163.008V29.1484H166.77C168.172 29.1484 169.264 28.7574 170.046 27.9755C170.855 27.1936 171.259 26.1285 171.259 24.7803C171.259 23.4591 170.855 22.4076 170.046 21.6256C169.237 20.8437 168.145 20.4527 166.77 20.4527Z" fill="#262626"/>
<path d="M198.504 24.4972V34.1636C198.504 36.8599 197.641 39.017 195.915 40.6348C194.216 42.2256 191.965 43.021 189.161 43.021C186.357 43.021 184.092 42.2256 182.366 40.6348C180.64 39.017 179.778 36.8599 179.778 34.1636V24.4972C179.778 21.747 180.586 19.5899 182.204 18.026C183.849 16.4352 186.168 15.6398 189.161 15.6398C191.965 15.6398 194.216 16.4487 195.915 18.0665C197.641 19.6573 198.504 21.8009 198.504 24.4972ZM184.833 24.5781V34.0827C184.833 35.4309 185.211 36.5094 185.966 37.3183C186.748 38.1002 187.813 38.4912 189.161 38.4912C190.509 38.4912 191.561 38.1002 192.315 37.3183C193.07 36.5094 193.448 35.4309 193.448 34.0827V24.5781C193.448 23.2299 193.07 22.1649 192.315 21.383C191.561 20.5741 190.509 20.1696 189.161 20.1696C187.813 20.1696 186.748 20.5741 185.966 21.383C185.211 22.1649 184.833 23.2299 184.833 24.5781Z" fill="#262626"/>
<path d="M217.684 24.4568C216.525 24.4568 215.743 23.904 215.338 22.7985C214.584 20.8033 213.276 19.8056 211.415 19.8056C210.256 19.8056 209.353 20.0887 208.706 20.655C208.058 21.1942 207.735 21.8953 207.735 22.7581C207.735 24.1602 208.571 25.1578 210.242 25.751L214.004 27.1262C215.001 27.4767 215.824 27.8272 216.471 28.1777C217.145 28.5282 217.833 29.0001 218.534 29.5933C219.235 30.1865 219.76 30.928 220.111 31.8178C220.488 32.7076 220.677 33.7322 220.677 34.8916C220.677 37.3183 219.841 39.2866 218.17 40.7966C216.498 42.2795 214.287 43.021 211.537 43.021C209.164 43.021 207.169 42.5087 205.551 41.4841C203.96 40.4326 202.922 38.9765 202.437 37.1161C202.221 36.3072 202.329 35.5792 202.76 34.932C203.218 34.258 203.906 33.9209 204.823 33.9209C205.874 33.9209 206.629 34.568 207.088 35.8623C207.411 36.833 207.897 37.5744 208.544 38.0867C209.218 38.5721 210.175 38.8148 211.415 38.8148C212.763 38.8148 213.815 38.5047 214.57 37.8845C215.352 37.2644 215.743 36.4555 215.743 35.4578C215.743 33.867 214.772 32.7076 212.831 31.9796L208.786 30.4426C206.845 29.6877 205.362 28.7305 204.337 27.571C203.34 26.4116 202.841 24.9286 202.841 23.1221C202.841 21.019 203.623 19.2529 205.187 17.8238C206.751 16.3678 208.827 15.6398 211.415 15.6398C213.599 15.6398 215.446 16.1521 216.956 17.1767C218.466 18.1743 219.45 19.5495 219.909 21.3021C220.124 22.111 220.017 22.839 219.585 23.4861C219.154 24.1332 218.52 24.4568 217.684 24.4568Z" fill="#262626"/>
<path d="M238.279 31.3324H230.311V38.0867H239.775C240.423 38.0867 240.948 38.3025 241.353 38.7339C241.784 39.1653 242 39.7045 242 40.3517C242 41.0258 241.798 41.5785 241.393 42.0099C240.989 42.4144 240.45 42.6166 239.775 42.6166H227.723C226.968 42.6166 226.361 42.4009 225.903 41.9695C225.471 41.5111 225.256 40.9044 225.256 40.1494V18.5114C225.256 17.7564 225.471 17.1632 225.903 16.7318C226.361 16.2734 226.968 16.0442 227.723 16.0442H239.411C240.059 16.0442 240.584 16.2464 240.989 16.6509C241.42 17.0553 241.636 17.5946 241.636 18.2687C241.636 18.9428 241.42 19.4955 240.989 19.9269C240.584 20.3584 240.059 20.5741 239.411 20.5741H230.311V26.8835H238.279C238.953 26.8835 239.479 27.0992 239.856 27.5306C240.261 27.9351 240.463 28.4743 240.463 29.1484C240.463 29.8225 240.261 30.3618 239.856 30.7662C239.479 31.1437 238.953 31.3324 238.279 31.3324Z" fill="#262626"/>
</svg>
